<?xml version="1.0" standalone="no"?>
<!DOCTYPE svg PUBLIC "-//W3C//DTD SVG 20010904//EN"
 "http://www.w3.org/TR/2001/REC-SVG-20010904/DTD/svg10.dtd">
<svg version="1.0" xmlns="http://www.w3.org/2000/svg"
 width="300.000000pt" height="300.000000pt" viewBox="0 0 300.000000 300.000000"
 preserveAspectRatio="xMidYMid meet">
<metadata>
Created by potrace 1.10, written by Peter Selinger 2001-2011
</metadata>
<g transform="translate(0.000000,300.000000) scale(0.100000,-0.100000)"
fill="#000000" stroke="none">
<path d="M781 1885 c-125 -58 -239 -221 -249 -354 -4 -64 -3 -71 21 -95 31
-31 72 -34 181 -10 82 19 101 15 117 -19 17 -38 -3 -71 -68 -108 -76 -43 -145
-113 -141 -141 12 -81 125 -23 196 102 25 44 42 59 116 100 47 26 86 46 86 44
0 -2 -9 -36 -20 -76 -25 -92 -63 -325 -55 -338 14 -22 24 -5 55 88 45 138 122
281 185 348 55 59 75 63 75 15 0 -32 -10 -45 -70 -93 -58 -46 -89 -100 -71
-122 8 -9 17 -16 22 -16 20 0 92 77 115 123 19 37 35 53 67 67 23 10 43 18 44
16 1 -1 -3 -18 -9 -38 -12 -39 -6 -68 14 -68 7 0 39 28 71 61 l58 61 -7 -51
c-5 -42 -4 -52 10 -57 22 -9 55 7 101 48 21 18 36 26 32 18 -20 -51 -38 -124
-35 -147 6 -50 27 -35 69 49 22 46 50 93 61 105 l21 22 19 -24 c24 -30 47 -32
82 -4 31 25 34 13 12 -53 -8 -24 -18 -74 -22 -112 -5 -55 -4 -68 7 -64 7 2 21
29 29 59 l16 54 58 7 c74 10 151 45 206 94 40 36 43 37 36 14 -4 -14 -10 -61
-13 -106 -4 -66 -2 -83 11 -97 25 -24 42 -12 105 72 l57 77 14 -31 c20 -41 58
-44 115 -10 64 37 168 136 156 148 -6 6 -36 -14 -83 -55 -104 -90 -158 -109
-171 -59 -4 17 2 25 33 41 51 26 92 76 88 109 -6 52 -72 35 -110 -28 -32 -54
-171 -241 -179 -241 -16 0 -17 35 -4 122 17 115 16 112 87 230 75 125 116 224
100 240 -26 26 -92 -75 -153 -237 -43 -114 -55 -130 -146 -195 -43 -31 -166
-70 -179 -57 -5 4 9 22 30 39 78 64 113 138 67 138 -21 0 -49 -29 -90 -95 -22
-37 -31 -44 -31 -29 0 33 23 92 89 224 58 116 72 160 52 160 -18 0 -51 -58
-103 -181 -43 -100 -59 -128 -87 -146 -43 -29 -49 -29 -63 2 -6 14 -19 25 -28
25 -22 0 -62 -44 -94 -105 -25 -46 -27 -47 -22 -17 3 18 19 63 35 100 30 67
31 105 2 63 -22 -31 -96 -102 -132 -124 l-29 -19 0 29 c0 15 12 55 26 88 36
84 39 95 23 95 -8 -1 -26 -19 -42 -41 -23 -34 -30 -38 -46 -29 -27 14 -34 13
-57 -8 -17 -16 -117 -62 -134 -62 -3 0 -5 12 -3 28 3 15 -2 35 -9 45 -38 51
-138 -45 -220 -210 -63 -128 -57 -117 -63 -112 -7 8 61 257 95 344 35 93 34
85 16 85 -7 0 -26 -32 -42 -75 l-29 -76 -82 -44 c-46 -25 -85 -45 -89 -45 -3
0 -4 8 -3 18 6 36 -11 70 -41 82 -25 10 -45 10 -113 -4 -112 -22 -144 -21
-158 5 -18 35 -6 121 29 191 76 156 259 271 337 214 50 -36 -15 -187 -92 -217
-13 -5 -23 -13 -23 -19 0 -13 36 -13 60 0 27 15 75 87 94 143 14 42 14 52 1
82 -25 60 -103 72 -194 30z m1569 -227 c-41 -72 -46 -61 -8 17 24 46 39 67 45
61 3 -2 -14 -37 -37 -78z m150 -192 c0 -15 -69 -80 -77 -72 -2 2 3 17 13 33
29 47 64 68 64 39z m-1004 -7 c6 -10 -85 -113 -94 -105 -8 9 11 49 40 82 32
36 43 41 54 23z m525 -27 c-11 -21 -51 -58 -51 -48 0 5 9 21 21 37 22 32 46
41 30 11z m-780 -109 c-14 -26 -70 -77 -77 -71 -3 4 11 25 31 47 38 42 63 55
46 24z m-450 -81 c-28 -40 -88 -92 -106 -92 -18 0 -18 5 -5 30 11 21 121 103
128 96 2 -3 -5 -18 -17 -34z"/>
</g>
</svg>
