 <svg  version="1.0" xmlns="http://www.w3.org/2000/svg"  width="300.000000pt" height="300.000000pt" viewBox="0 0 300.000000 300.000000"  preserveAspectRatio="xMidYMid meet">  <g transform="translate(0.000000,300.000000) scale(0.100000,-0.100000)" fill="#1f44ff" stroke="none"> <path d="M781 1885 c-72 -34 -167 -133 -210 -217 -25 -51 -35 -84 -39 -137 -4 -65 -3 -71 21 -95 31 -31 78 -34 172 -11 84 20 102 19 120 -9 28 -43 11 -71 -81 -131 -109 -71 -147 -130 -103 -158 40 -25 122 36 177 133 25 44 42 58 117 100 78 44 87 47 81 27 -36 -124 -81 -381 -70 -398 13 -21 25 -3 49 76 39 128 125 293 189 360 56 60 76 64 76 16 0 -32 -10 -45 -70 -93 -58 -46 -89 -100 -71 -122 8 -9 17 -16 22 -16 20 0 92 77 115 122 17 34 36 54 65 69 23 11 42 19 44 17 2 -2 -2 -22 -8 -46 -8 -32 -8 -45 1 -54 16 -16 53 11 110 81 36 45 42 48 35 24 -4 -15 -8 -44 -8 -63 0 -51 29 -51 95 1 36 29 51 36 46 23 -20 -50 -39 -142 -33 -157 12 -32 27 -17 71 71 24 48 53 95 64 105 19 17 20 17 36 -8 20 -31 45 -32 80 -4 15 12 29 20 30 18 2 -2 -5 -28 -14 -58 -25 -76 -37 -195 -19 -189 7 2 21 29 29 59 l16 54 58 7 c74 10 151 45 206 94 40 36 43 37 36 14 -11 -42 -19 -156 -12 -184 5 -19 13 -26 31 -26 20 0 38 17 83 78 l58 78 14 -31 c30 -61 102 -38 220 72 42 39 58 59 50 67 -7 7 -20 1 -42 -20 -82 -76 -104 -94 -139 -110 -43 -19 -64 -15 -72 15 -4 17 2 25 33 41 51 26 92 76 88 109 -6 52 -72 35 -110 -28 -32 -54 -171 -241 -179 -241 -15 0 -17 31 -8 104 12 97 31 153 75 222 41 63 124 232 124 250 0 21 -20 27 -38 11 -32 -30 -82 -123 -123 -232 -43 -114 -55 -130 -146 -195 -41 -29 -166 -70 -178 -58 -3 3 21 33 55 66 42 43 60 68 60 86 0 55 -64 16 -105 -64 -11 -22 -12 -29 -2 -33 9 -3 7 -10 -5 -24 -10 -11 -18 -24 -18 -30 0 -5 -6 -10 -14 -10 -10 0 -12 10 -9 36 6 46 13 64 96 235 64 134 78 176 58 176 -18 0 -51 -58 -103 -181 -43 -100 -59 -128 -87 -146 -43 -29 -49 -29 -63 2 -6 14 -19 25 -29 25 -22 0 -69 -54 -93 -108 -10 -23 -23 -42 -27 -42 -8 0 20 83 55 163 14 32 14 37 1 37 -8 0 -20 -10 -27 -23 -15 -27 -93 -99 -125 -116 -21 -11 -23 -10 -23 16 0 15 12 55 26 88 36 84 39 95 23 95 -8 -1 -26 -19 -42 -41 -23 -34 -30 -38 -46 -29 -27 14 -34 13 -57 -8 -17 -16 -117 -62 -134 -62 -3 0 -5 12 -3 28 3 15 -2 35 -9 45 -38 51 -138 -45 -220 -210 -63 -128 -57 -117 -63 -112 -8 8 61 260 94 342 36 89 35 87 17 87 -7 0 -26 -32 -42 -75 l-29 -76 -82 -44 c-46 -25 -85 -45 -88 -45 -3 0 -5 15 -5 34 0 68 -44 85 -155 62 -148 -31 -171 -19 -163 80 15 183 251 397 369 334 24 -14 26 -77 3 -123 -21 -42 -63 -87 -92 -98 -26 -10 -21 -29 7 -29 30 0 66 35 99 98 37 69 42 128 14 162 -29 36 -112 38 -181 5z m1573 -225 c-49 -95 -57 -81 -9 17 21 43 40 72 42 66 2 -6 -12 -44 -33 -83z m146 -194 c0 -16 -69 -80 -77 -72 -7 7 35 73 50 80 21 8 27 6 27 -8z m-1004 -7 c6 -10 -85 -113 -93 -105 -10 9 11 56 37 85 31 33 45 38 56 20z m534 -17 c0 -5 -13 -21 -30 -37 -35 -33 -39 -26 -9 16 19 28 39 38 39 21z m-789 -119 c-14 -26 -70 -77 -77 -71 -3 4 11 25 31 47 38 42 63 55 46 24z m-431 -52 c0 -19 -103 -121 -121 -121 -38 0 -13 39 58 90 61 43 63 44 63 31z"/> </g> </svg> 